<svg width="20" height="20" viewBox="0 0 20 20" fill="none" xmlns="http://www.w3.org/2000/svg">
<path d="M10 19.5098C15.2522 19.5098 19.5098 15.2522 19.5098 10C19.5098 4.74792 15.2522 0.490234 10 0.490234C4.74792 0.490234 0.490234 4.74792 0.490234 10C0.490234 15.2522 4.74792 19.5098 10 19.5098Z" fill="#FAFAFA" stroke="#FAFAFA" stroke-width="0.980393"/>
<path d="M14.6295 7.89967C14.7247 7.53281 14.5045 7.1582 14.1377 7.06296L8.15937 5.51096C7.79251 5.41572 7.4179 5.63591 7.32266 6.00277C7.22743 6.36963 7.44762 6.74423 7.81448 6.83947L13.1285 8.21903L11.749 13.5331C11.6537 13.8999 11.8739 14.2745 12.2408 14.3698C12.6076 14.465 12.9822 14.2448 13.0775 13.878L14.6295 7.89967ZM6.11924 12.3391L6.467 12.9307L14.313 8.31886L13.9652 7.72722L13.6175 7.13558L5.77148 11.7474L6.11924 12.3391Z" fill="#3083E3"/>
</svg>
