<svg width="20" height="21" viewBox="0 0 20 21" fill="none" xmlns="http://www.w3.org/2000/svg">
<path d="M18.6957 0H1.30435C0.958418 0 0.626648 0.137426 0.382037 0.382037C0.137417 0.626648 0 0.958418 0 1.30435V7.39135C0 12.9522 2.68804 16.3175 4.9424 18.1631C7.37721 20.1544 9.7848 20.8262 9.88593 20.8544C9.96058 20.8747 10.0394 20.8747 10.1142 20.8544C10.2152 20.8262 12.6229 20.1544 15.0576 18.1631C17.312 16.3153 20 12.9522 20 7.39135V1.30435C20 0.958418 19.8626 0.626648 19.618 0.382037C19.3733 0.137426 19.0416 0 18.6957 0ZM19.1305 7.39135C19.1305 11.5695 17.5838 14.9598 14.5337 17.4685C13.1869 18.5732 11.6507 19.4243 10 19.9805C8.34907 19.4248 6.81288 18.5737 5.46631 17.4685C2.41631 14.9598 0.869561 11.5695 0.869561 7.39135V1.30435C0.869561 1.18904 0.91537 1.07845 0.996913 0.996913C1.07845 0.915379 1.18904 0.86957 1.30435 0.86957H18.6957C18.811 0.86957 18.9216 0.915379 19.0031 0.996913C19.0847 1.07845 19.1305 1.18904 19.1305 1.30435V7.39135ZM14.6555 6.21412C14.6959 6.25453 14.728 6.30243 14.7499 6.35527C14.7717 6.40801 14.783 6.46465 14.783 6.52175C14.783 6.57886 14.7717 6.63549 14.7499 6.68824C14.728 6.74107 14.6959 6.78898 14.6555 6.82939L8.56848 12.9163C8.52807 12.9568 8.48017 12.9889 8.42743 13.0107C8.37459 13.0326 8.31805 13.0439 8.26085 13.0439C8.20374 13.0439 8.1472 13.0326 8.09436 13.0107C8.04162 12.9889 7.99362 12.9568 7.95331 12.9163L5.3446 10.3076C5.26302 10.226 5.21716 10.1154 5.21716 10.0001C5.21716 9.88461 5.26302 9.774 5.3446 9.69242C5.42618 9.61084 5.53679 9.56502 5.65215 9.56502C5.76759 9.56502 5.8782 9.61084 5.95978 9.69242L8.26085 11.9935L14.0402 6.21412C14.0806 6.17371 14.1286 6.14164 14.1814 6.11973C14.2341 6.09791 14.2907 6.08662 14.3479 6.08662C14.405 6.08662 14.4616 6.09791 14.5143 6.11973C14.5672 6.14164 14.6151 6.17371 14.6555 6.21412Z" fill="#0E6DE5"/>
</svg>
