<svg width="32" height="32" viewBox="0 0 32 32" fill="none" xmlns="http://www.w3.org/2000/svg">
<g clip-path="url(#clip0_2006_191)">
<mask id="mask0_2006_191" style="mask-type:luminance" maskUnits="userSpaceOnUse" x="0" y="0" width="32" height="32">
<path d="M31.6768 15.8399C31.6768 7.27108 24.7304 0.324707 16.1616 0.324707C7.59285 0.324707 0.646484 7.27108 0.646484 15.8399C0.646484 24.4086 7.59285 31.355 16.1616 31.355C24.7304 31.355 31.6768 24.4086 31.6768 15.8399Z" fill="white"/>
</mask>
<g mask="url(#mask0_2006_191)">
<path d="M31.6768 15.8399C31.6768 7.27108 24.7304 0.324707 16.1616 0.324707C7.59285 0.324707 0.646484 7.27108 0.646484 15.8399C0.646484 24.4086 7.59285 31.355 16.1616 31.355C24.7304 31.355 31.6768 24.4086 31.6768 15.8399Z" fill="#F7F6F6"/>
<path d="M22.9493 12.9309C22.9493 9.1821 19.9103 6.14307 16.1614 6.14307C12.4126 6.14307 9.37354 9.1821 9.37354 12.9309C9.37354 16.6798 12.4126 19.7188 16.1614 19.7188C19.9103 19.7188 22.9493 16.6798 22.9493 12.9309Z" fill="#146EFF"/>
<path d="M39.4341 43.9612C39.4341 31.108 29.0146 20.6885 16.1614 20.6885C3.30823 20.6885 -7.11133 31.108 -7.11133 43.9612C-7.11133 56.8144 3.30823 67.2339 16.1614 67.2339C29.0146 67.2339 39.4341 56.8144 39.4341 43.9612Z" fill="#146EFF"/>
</g>
</g>
<defs>
<clipPath id="clip0_2006_191">
<rect width="32" height="32" fill="white"/>
</clipPath>
</defs>
</svg>
