<svg width="20" height="20" viewBox="0 0 20 20" fill="none" xmlns="http://www.w3.org/2000/svg">
<path d="M15.9522 3.13477H4.04741C3.73168 3.13477 3.42888 3.26019 3.20562 3.48345C2.98236 3.70671 2.85693 4.00951 2.85693 4.32524V8.49191C2.85693 12.4146 4.75574 14.7917 6.34875 16.0953C8.06452 17.4986 9.77137 17.9748 9.84577 17.9949C9.94808 18.0228 10.056 18.0228 10.1583 17.9949C10.2326 17.9748 11.9373 17.4986 13.6553 16.0953C15.2439 14.7917 17.1426 12.4146 17.1426 8.49191V4.32524C17.1426 4.00951 17.0172 3.70671 16.794 3.48345C16.5707 3.26019 16.2679 3.13477 15.9522 3.13477ZM13.3986 8.3178L9.23193 12.4845C9.17665 12.5398 9.111 12.5837 9.03874 12.6137C8.96649 12.6436 8.88903 12.6591 8.8108 12.6591C8.73258 12.6591 8.65512 12.6436 8.58286 12.6137C8.5106 12.5837 8.44495 12.5398 8.38967 12.4845L6.60396 10.6988C6.49227 10.5871 6.42951 10.4356 6.42951 10.2776C6.42951 10.1197 6.49227 9.96819 6.60396 9.85648C6.71565 9.74477 6.86713 9.6821 7.02509 9.6821C7.18304 9.6821 7.33452 9.74477 7.44622 9.85648L8.80931 11.2218L12.5548 7.47555C12.6102 7.42024 12.6758 7.37637 12.7481 7.34644C12.8204 7.31651 12.8978 7.30111 12.976 7.30111C13.0542 7.30111 13.1316 7.31651 13.2039 7.34644C13.2762 7.37637 13.3418 7.42024 13.3971 7.47555C13.4525 7.53084 13.4963 7.5965 13.5262 7.66876C13.5562 7.74101 13.5715 7.81846 13.5715 7.89667C13.5715 7.97489 13.5562 8.05233 13.5262 8.12459C13.4963 8.19684 13.4525 8.2625 13.3971 8.3178H13.3986Z" fill="white"/>
</svg>
