<svg width="18" height="22" viewBox="0 0 18 22" fill="none" xmlns="http://www.w3.org/2000/svg">
<path d="M17.8745 6.12529L11.8746 0.125354C11.8348 0.0855766 11.7874 0.0540278 11.7354 0.0325121C11.6834 0.0110058 11.6276 -4.66052e-05 11.5713 1.47709e-07H1.2857C0.944717 1.47709e-07 0.61769 0.135462 0.376576 0.376576C0.135462 0.61769 0 0.944717 0 1.2857V20.1428C0 20.4837 0.135462 20.8108 0.376576 21.0518C0.61769 21.293 0.944717 21.4285 1.2857 21.4285H16.7142C17.0552 21.4285 17.3822 21.293 17.6233 21.0518C17.8644 20.8108 17.9999 20.4837 17.9999 20.1428V6.42853C17.9999 6.37224 17.9888 6.31651 17.9673 6.26443C17.9458 6.21244 17.9143 6.16513 17.8745 6.12529ZM11.9999 1.4625L16.5363 5.99996H11.9999V1.4625ZM16.7142 20.5713H1.2857C1.17204 20.5713 1.06303 20.5261 0.982662 20.4458C0.902294 20.3654 0.85714 20.2564 0.85714 20.1428V1.2857C0.85714 1.17204 0.902294 1.06304 0.982662 0.982662C1.06303 0.902294 1.17204 0.85714 1.2857 0.85714H11.1428V6.42853C11.1428 6.54224 11.188 6.65117 11.2683 6.73159C11.3487 6.81191 11.4576 6.85707 11.5713 6.85707H17.1427V20.1428C17.1427 20.2564 17.0975 20.3654 17.0172 20.4458C16.9368 20.5261 16.8279 20.5713 16.7142 20.5713ZM11.2777 14.9581C11.8137 14.2682 12.0665 13.4 11.9847 12.5302C11.903 11.6604 11.4928 10.8545 10.8377 10.2766C10.1826 9.69862 9.33179 9.39211 8.45863 9.41932C7.58547 9.44662 6.75551 9.80568 6.13772 10.4235C5.52002 11.0412 5.16096 11.8711 5.13366 12.7443C5.10635 13.6174 5.41296 14.4683 5.99082 15.1234C6.56878 15.7785 7.37471 16.1887 8.2445 16.2704C9.11429 16.3522 9.98249 16.0994 10.6724 15.5635L12.1253 17.0174C12.2057 17.0978 12.3147 17.143 12.4285 17.143C12.5422 17.143 12.6512 17.0978 12.7317 17.0174C12.8121 16.937 12.8573 16.8279 12.8573 16.7142C12.8573 16.6005 12.8121 16.4913 12.7317 16.4109L11.2777 14.9581ZM5.99999 12.8571C5.99999 12.3485 6.15081 11.8513 6.43329 11.4285C6.71587 11.0056 7.11748 10.676 7.58734 10.4814C8.05721 10.2868 8.5742 10.2358 9.07306 10.335C9.57182 10.4342 10.03 10.6792 10.3896 11.0387C10.7492 11.3984 10.9941 11.8565 11.0933 12.3554C11.1926 12.8542 11.1417 13.3712 10.947 13.8411C10.7524 14.311 10.4228 14.7126 9.99998 14.9951C9.57705 15.2776 9.07998 15.4285 8.5714 15.4285C7.88937 15.4285 7.23529 15.1576 6.75308 14.6753C6.27087 14.1931 5.99999 13.539 5.99999 12.8571Z" fill="#0D6CE4"/>
</svg>
