<svg width="22" height="22" viewBox="0 0 22 22" fill="none" xmlns="http://www.w3.org/2000/svg">
<path d="M18.9197 13.6398C18.9197 13.8138 18.8682 13.984 18.7715 14.1287C18.6747 14.2735 18.5374 14.3862 18.3766 14.4528C18.2158 14.5194 18.0388 14.5369 17.8681 14.5029C17.6974 14.4689 17.5406 14.3851 17.4175 14.2621C17.2945 14.139 17.2107 13.9822 17.1767 13.8115C17.1427 13.6409 17.1602 13.4638 17.2268 13.303C17.2934 13.1422 17.4061 13.0049 17.5509 12.9082C17.6956 12.8114 17.8658 12.7599 18.0398 12.7599C18.2732 12.7599 18.4969 12.8525 18.662 13.0176C18.8271 13.1826 18.9197 13.4064 18.9197 13.6398ZM18.461 17.5767C18.3553 18.7829 17.8017 19.9059 16.9094 20.7245C16.0171 21.5431 14.8507 21.998 13.6398 21.9998H10.9998C9.71671 21.9983 8.48648 21.4879 7.5791 20.5805C6.67172 19.6732 6.16139 18.443 6.15995 17.1598V12.3033C4.48972 12.1917 2.92431 11.4497 1.78064 10.2274C0.636961 9.00507 0.000460794 7.39383 0 5.71992V0.439991C0 0.323305 0.046358 0.211389 0.128869 0.128869C0.211389 0.046358 0.323305 0 0.439991 0H3.07996C3.19665 0 3.30857 0.046358 3.39108 0.128869C3.4736 0.211389 3.51996 0.323305 3.51996 0.439991C3.51996 0.556687 3.4736 0.668603 3.39108 0.751114C3.30857 0.833634 3.19665 0.879992 3.07996 0.879992H0.879992V5.71992C0.879925 6.47752 1.03035 7.22756 1.32254 7.92652C1.61473 8.62549 2.04285 9.25947 2.58206 9.79159C3.12128 10.3237 3.76082 10.7435 4.46358 11.0264C5.16634 11.3094 5.91832 11.4499 6.67585 11.4399C9.78986 11.3992 12.3198 8.79214 12.3198 5.62863V0.879992H10.1199C10.0032 0.879992 9.89123 0.833634 9.80877 0.751114C9.72621 0.668603 9.67984 0.556687 9.67984 0.439991C9.67984 0.323305 9.72621 0.211389 9.80877 0.128869C9.89123 0.046358 10.0032 0 10.1199 0H12.7599C12.8765 0 12.9884 0.046358 13.071 0.128869C13.1535 0.211389 13.1998 0.323305 13.1998 0.439991V5.62863C13.1998 9.14859 10.4675 12.0735 7.03988 12.3045V17.1598C7.03988 18.21 7.45709 19.2172 8.19974 19.9599C8.94238 20.7025 9.9496 21.1197 10.9998 21.1197H13.6398C14.6182 21.1184 15.5616 20.7554 16.2885 20.1005C17.0155 19.4457 17.4747 18.5452 17.5778 17.5723C16.572 17.4598 15.6473 16.9665 14.9939 16.1937C14.3404 15.4208 14.0077 14.4271 14.0639 13.4165C14.1203 12.406 14.5614 11.4553 15.2966 10.7599C16.032 10.0644 17.0057 9.67687 18.0178 9.67687C19.0298 9.67687 20.0036 10.0644 20.7389 10.7599C21.4742 11.4553 21.9153 12.406 21.9716 13.4165C22.0279 14.4271 21.6951 15.4208 21.0417 16.1937C20.3882 16.9665 19.4636 17.4598 18.4578 17.5723L18.461 17.5767ZM21.1197 13.6398C21.1197 13.0307 20.9391 12.4352 20.6007 11.9287C20.2623 11.4222 19.7812 11.0275 19.2184 10.7943C18.6556 10.5612 18.0363 10.5003 17.4389 10.619C16.8415 10.7378 16.2926 11.0312 15.8619 11.462C15.4311 11.8927 15.1379 12.4415 15.019 13.0389C14.9002 13.6364 14.9611 14.2557 15.1943 14.8185C15.4274 15.3813 15.8221 15.8623 16.3286 16.2008C16.8351 16.5392 17.4306 16.7198 18.0398 16.7198C18.4442 16.7198 18.8448 16.6401 19.2184 16.4853C19.5921 16.3305 19.9317 16.1037 20.2176 15.8177C20.5036 15.5316 20.7305 15.1922 20.8853 14.8185C21.0401 14.4448 21.1197 14.0443 21.1197 13.6398Z" fill="#1679FE"/>
</svg>
